<svg width="34" height="35" viewBox="0 0 34 35" fill="none" xmlns="http://www.w3.org/2000/svg">
<path d="M22.667 4.75H1.41699V23.1667H22.667V4.75Z" stroke="#262626" stroke-width="1.5" stroke-linecap="round" stroke-linejoin="round"/>
<path d="M22.667 11.8334H28.3337L32.5837 16.0834V23.1667H22.667V11.8334Z" stroke="#262626" stroke-width="1.5" stroke-linecap="round" stroke-linejoin="round"/>
<path d="M7.79167 30.25C9.74767 30.25 11.3333 28.6643 11.3333 26.7083C11.3333 24.7523 9.74767 23.1666 7.79167 23.1666C5.83566 23.1666 4.25 24.7523 4.25 26.7083C4.25 28.6643 5.83566 30.25 7.79167 30.25Z" stroke="#262626" stroke-width="1.5" stroke-linecap="round" stroke-linejoin="round"/>
<path d="M26.2087 30.25C28.1647 30.25 29.7503 28.6643 29.7503 26.7083C29.7503 24.7523 28.1647 23.1666 26.2087 23.1666C24.2527 23.1666 22.667 24.7523 22.667 26.7083C22.667 28.6643 24.2527 30.25 26.2087 30.25Z" stroke="#262626" stroke-width="1.5" stroke-linecap="round" stroke-linejoin="round"/>
</svg>
