<svg width="34" height="35" viewBox="0 0 34 35" fill="none" xmlns="http://www.w3.org/2000/svg">
<path d="M28.3337 17.5V31.6667H5.66699V17.5" stroke="#262626" stroke-width="1.5" stroke-linecap="round" stroke-linejoin="round"/>
<path d="M31.1663 10.4166H2.83301V17.5H31.1663V10.4166Z" stroke="#262626" stroke-width="1.5" stroke-linecap="round" stroke-linejoin="round"/>
<path d="M17 31.6666V10.4166" stroke="#262626" stroke-width="1.5" stroke-linecap="round" stroke-linejoin="round"/>
<path d="M16.9997 10.4167H10.6247C9.68537 10.4167 8.78453 10.0436 8.12034 9.37938C7.45615 8.71519 7.08301 7.81435 7.08301 6.87504C7.08301 5.93573 7.45615 5.0349 8.12034 4.3707C8.78453 3.70651 9.68537 3.33337 10.6247 3.33337C15.583 3.33337 16.9997 10.4167 16.9997 10.4167Z" stroke="#262626" stroke-width="1.5" stroke-linecap="round" stroke-linejoin="round"/>
<path d="M17 10.4167H23.375C24.3143 10.4167 25.2151 10.0436 25.8793 9.37938C26.5435 8.71519 26.9167 7.81435 26.9167 6.87504C26.9167 5.93573 26.5435 5.0349 25.8793 4.3707C25.2151 3.70651 24.3143 3.33337 23.375 3.33337C18.4167 3.33337 17 10.4167 17 10.4167Z" stroke="#262626" stroke-width="1.5" stroke-linecap="round" stroke-linejoin="round"/>
</svg>
